<?xml version="1.0" standalone="no"?><!DOCTYPE svg PUBLIC "-//W3C//DTD SVG 1.1//EN" "http://www.w3.org/Graphics/SVG/1.1/DTD/svg11.dtd"><svg t="1631678230186" class="icon" viewBox="0 0 1024 1024" version="1.1" xmlns="http://www.w3.org/2000/svg" p-id="1933" xmlns:xlink="http://www.w3.org/1999/xlink" width="200" height="200"><defs><style type="text/css"></style></defs><path d="M422.4 196.266667h362.666667c4.266667 0 12.8 0 17.066666 4.266666 8.533333 4.266667 17.066667 12.8 21.333334 25.6 4.266667 4.266667 4.266667 12.8 4.266666 17.066667v362.666667c0 25.6-17.066667 42.666667-42.666666 42.666666s-42.666667-17.066667-42.666667-42.666666V341.333333l-469.333333 469.333334c-17.066667 17.066667-42.666667 17.066667-59.733334 0-17.066667-17.066667-17.066667-42.666667 0-59.733334l469.333334-469.333333H422.4c-12.8 0-21.333333-4.266667-29.866667-12.8-8.533333-4.266667-12.8-17.066667-12.8-29.866667 0-21.333333 17.066667-42.666667 42.666667-42.666666z" p-id="1934" fill="#ffffff"></path></svg>